<?xml version="1.0"?>
<svg xmlns="http://www.w3.org/2000/svg" xmlns:xlink="http://www.w3.org/1999/xlink" xmlns:svgjs="http://svgjs.com/svgjs" version="1.1" width="512" height="512" x="0" y="0" viewBox="0 0 721.285 721.285" style="enable-background:new 0 0 512 512" xml:space="preserve" class=""><g>
<g xmlns="http://www.w3.org/2000/svg">
	<g>
		<path style="" d="M235.647,58.741l-46.446-45.08L202.861,0l46.446,45.08L235.647,58.741z M60.79,148.901    l46.446,45.081l13.661-13.661L74.451,135.24L60.79,148.901z M530.718,13.661L517.058,0L470.61,45.08l13.662,13.661L530.718,13.661    z M645.468,133.875l-45.08,46.446l13.66,13.661l46.447-45.081L645.468,133.875z M629.075,117.482l-17.758,16.393l-21.857-21.857    c4.098-9.563,2.732-20.491-5.465-28.688s-19.125-9.563-28.688-5.464l-27.322-28.688l19.125-19.125l-13.66-13.661l-46.445,45.081    l13.66,13.661l19.125-19.125l27.322,27.321l-92.895,94.259H265.701l-92.893-92.893l27.321-27.321L217.888,76.5l13.661-13.661    l-45.081-45.08L172.807,31.42l17.759,19.125l-27.321,27.321c-9.563-4.098-20.491-2.732-28.688,5.464    c-5.464,5.464-8.196,13.661-6.83,21.857c0,2.732,1.366,5.464,2.732,6.83l-21.857,21.857l-17.759-16.393l-13.661,13.661    l46.446,45.081l13.662-13.66l-20.491-20.491l20.491-20.492l144.803,148.902v416.652c0,19.125,15.027,34.151,34.152,34.151    s34.152-15.026,34.152-34.151V408.455h19.125v278.679c0,19.125,15.025,34.151,34.15,34.151s34.152-15.026,34.152-34.151V270.482    l146.17-148.902l20.49,20.491l-20.49,20.491l13.66,13.661l46.447-45.081L629.075,117.482z M359.959,159.83    c34.151,0,62.838-28.688,62.838-62.839s-28.688-62.839-62.838-62.839c-34.152,0-62.839,28.688-62.839,62.839    S325.808,159.83,359.959,159.83z" fill="#ffffff" data-original="#010002" class=""/>
	</g>
</g>
<g xmlns="http://www.w3.org/2000/svg">
</g>
<g xmlns="http://www.w3.org/2000/svg">
</g>
<g xmlns="http://www.w3.org/2000/svg">
</g>
<g xmlns="http://www.w3.org/2000/svg">
</g>
<g xmlns="http://www.w3.org/2000/svg">
</g>
<g xmlns="http://www.w3.org/2000/svg">
</g>
<g xmlns="http://www.w3.org/2000/svg">
</g>
<g xmlns="http://www.w3.org/2000/svg">
</g>
<g xmlns="http://www.w3.org/2000/svg">
</g>
<g xmlns="http://www.w3.org/2000/svg">
</g>
<g xmlns="http://www.w3.org/2000/svg">
</g>
<g xmlns="http://www.w3.org/2000/svg">
</g>
<g xmlns="http://www.w3.org/2000/svg">
</g>
<g xmlns="http://www.w3.org/2000/svg">
</g>
<g xmlns="http://www.w3.org/2000/svg">
</g>
</g></svg>
