<?xml version="1.0"?>
<svg xmlns="http://www.w3.org/2000/svg" xmlns:xlink="http://www.w3.org/1999/xlink" xmlns:svgjs="http://svgjs.com/svgjs" version="1.1" width="512" height="512" x="0" y="0" viewBox="0 0 330 330" style="enable-background:new 0 0 512 512" xml:space="preserve" class=""><g>
<g xmlns="http://www.w3.org/2000/svg" id="XMLID_223_">
	<path id="XMLID_224_" d="M270,151.505V62.576c17.459,6.192,30,22.865,30,42.42c0,8.284,6.716,15,15,15s15-6.716,15-15   c0-36.219-25.808-66.522-60-73.491v-16.5c0-8.284-6.716-15-15-15c-8.284,0-15,6.716-15,15v16.5c-34.192,6.968-60,37.271-60,73.491   s25.808,66.522,60,73.491v88.929c-17.459-6.192-30-22.865-30-42.42c0-8.284-6.716-15-15-15s-15,6.716-15,15   c0,36.219,25.808,66.522,60,73.491v16.509c0,8.284,6.716,15,15,15c8.284,0,15-6.716,15-15v-16.509   c34.192-6.968,60-37.271,60-73.491S304.192,158.473,270,151.505z M210,104.996c0-19.555,12.541-36.228,30-42.42v84.84   C222.541,141.224,210,124.55,210,104.996z M270,267.415v-84.84c17.459,6.192,30,22.865,30,42.42S287.459,261.224,270,267.415z" fill="#ffffff" data-original="#000000" style="" class=""/>
	<path id="XMLID_228_" d="M150.402,106.199c0-41.466-33.735-75.201-75.202-75.201c-0.173,0-0.346,0.003-0.518,0.009H15   c-8.284,0-15,6.716-15,15v237.995c0,8.284,6.716,15,15,15s15-6.716,15-15V181.408h45.201c0.142,0,0.283-0.002,0.424-0.006   c24.73,0.229,44.778,20.416,44.778,45.198v57.401c0,8.284,6.716,15,15,15c8.284,0,15-6.716,15-15V226.6   c0-24.596-11.871-46.472-30.184-60.2C138.531,152.671,150.402,130.795,150.402,106.199z M75.201,151.4H30V61.006h45.201   c0.15,0,0.3-0.002,0.449-0.006c24.72,0.24,44.753,20.424,44.753,45.199C120.402,131.123,100.125,151.4,75.201,151.4z" fill="#ffffff" data-original="#000000" style="" class=""/>
</g>
<g xmlns="http://www.w3.org/2000/svg">
</g>
<g xmlns="http://www.w3.org/2000/svg">
</g>
<g xmlns="http://www.w3.org/2000/svg">
</g>
<g xmlns="http://www.w3.org/2000/svg">
</g>
<g xmlns="http://www.w3.org/2000/svg">
</g>
<g xmlns="http://www.w3.org/2000/svg">
</g>
<g xmlns="http://www.w3.org/2000/svg">
</g>
<g xmlns="http://www.w3.org/2000/svg">
</g>
<g xmlns="http://www.w3.org/2000/svg">
</g>
<g xmlns="http://www.w3.org/2000/svg">
</g>
<g xmlns="http://www.w3.org/2000/svg">
</g>
<g xmlns="http://www.w3.org/2000/svg">
</g>
<g xmlns="http://www.w3.org/2000/svg">
</g>
<g xmlns="http://www.w3.org/2000/svg">
</g>
<g xmlns="http://www.w3.org/2000/svg">
</g>
</g></svg>
