<?xml version="1.0"?>
<svg xmlns="http://www.w3.org/2000/svg" xmlns:xlink="http://www.w3.org/1999/xlink" xmlns:svgjs="http://svgjs.com/svgjs" version="1.1" width="512" height="512" x="0" y="0" viewBox="0 0 64 64" style="enable-background:new 0 0 512 512" xml:space="preserve" class=""><g><g xmlns="http://www.w3.org/2000/svg" id="Layer_25" data-name="Layer 25"><g fill="#f4b2b0"><path d="m32 2a18 18 0 0 0 -18 18 19.609 19.609 0 0 0 4.433 12.418l13.567 16.582 13.567-16.582a19.609 19.609 0 0 0 4.433-12.418 18 18 0 0 0 -18-18zm0 31a13 13 0 1 1 13-13 13 13 0 0 1 -13 13z" fill="#b0f4c7" data-original="#f4b2b0" style="" class=""/><path d="m24 16a8 8 0 0 1 8 8v4a0 0 0 0 1 0 0 8 8 0 0 1 -8-8v-4a0 0 0 0 1 0 0z" fill="#b0f4c7" data-original="#f4b2b0" style="" class=""/><path d="m40 16a0 0 0 0 1 0 0v4a8 8 0 0 1 -8 8 0 0 0 0 1 0 0v-4a8 8 0 0 1 8-8z" transform="matrix(-1 0 0 -1 72 44)" fill="#b0f4c7" data-original="#f4b2b0" style="" class=""/></g><path d="m40.9 39.708 5.447-6.657a20.668 20.668 0 0 0 4.653-13.051 19 19 0 0 0 -38 0 20.668 20.668 0 0 0 4.658 13.051l5.447 6.657c-10.305 1.685-17.105 6.119-17.105 11.292 0 6.729 11.421 12 26 12s26-5.271 26-12c0-5.173-6.8-9.607-17.1-11.292zm-25.9-19.708a17 17 0 0 1 34 0 18.662 18.662 0 0 1 -4.207 11.785l-12.793 15.636-12.793-15.636a18.662 18.662 0 0 1 -4.207-11.785zm16.226 29.633a1 1 0 0 0 1.548 0l3.5-4.281c5.088.848 8.726 3.182 8.726 5.648 0 2.9-5.224 6-13 6s-13-3.1-13-6c0-2.466 3.638-4.8 8.723-5.648zm.774 11.367c-13.01 0-24-4.579-24-10 0-4.194 6.943-8.143 16.579-9.49l1.7 2.081c-5.612 1.2-9.279 4.064-9.279 7.409 0 4.486 6.589 8 15 8s15-3.514 15-8c0-3.345-3.667-6.209-9.282-7.409l1.7-2.081c9.639 1.347 16.582 5.296 16.582 9.49 0 5.421-10.99 10-24 10z" fill="#0b5e37" data-original="#b3404a" style="" class=""/><path d="m46 20a14 14 0 1 0 -14 14 14.015 14.015 0 0 0 14-14zm-26 0a12 12 0 1 1 12 12 12.013 12.013 0 0 1 -12-12z" fill="#0b5e37" data-original="#b3404a" style="" class=""/><path d="m41 20v-4a1 1 0 0 0 -1-1 9 9 0 0 0 -8 4.9 9 9 0 0 0 -8-4.9 1 1 0 0 0 -1 1v4a9 9 0 0 0 18 0zm-2-2.929v2.929a7.011 7.011 0 0 1 -6 6.929v-2.929a7.011 7.011 0 0 1 6-6.929zm-14 2.929v-2.929a7.011 7.011 0 0 1 6 6.929v2.929a7.011 7.011 0 0 1 -6-6.929z" fill="#0b5e37" data-original="#b3404a" style="" class=""/></g></g></svg>
